<svg width="64" height="64" viewBox="0 0 64 64" fill="none" xmlns="http://www.w3.org/2000/svg">
<mask id="mask0" mask-type="alpha" maskUnits="userSpaceOnUse" x="0" y="0" width="64" height="64">
<circle cx="32" cy="32" r="32" fill="#56CCA1"/>
</mask>
<g mask="url(#mask0)">
<circle cx="31.7612" cy="32.2388" r="29.8507" fill="#56CCA1"/>
<path fill-rule="evenodd" clip-rule="evenodd" d="M57.3527 47.6145C60.0566 43.1236 61.612 37.8628 61.612 32.2388C61.612 15.7527 48.2473 2.38806 31.7612 2.38806C21.1104 2.38806 11.7624 7.96618 6.47927 16.3604C3.58467 14.3709 0.0787816 13.2065 -3.69907 13.2065V63.6405H14.292V56.4468C16.4522 58.0083 18.8297 59.2879 21.3705 60.2314L21.3705 63.6405H57.3527L57.3527 47.6145ZM57.3527 47.6145L57.3526 31.1975C57.3526 21.2613 49.2978 13.2064 39.3615 13.2064C29.4253 13.2064 21.3705 21.2613 21.3705 31.1975L21.3705 60.2314C24.6063 61.433 28.1071 62.0895 31.7612 62.0895C42.6233 62.0895 52.1303 56.288 57.3527 47.6145ZM1.91047 32.2388C1.91047 42.2016 6.79119 51.0245 14.292 56.4468V31.1976C14.292 25.0392 11.1978 19.6035 6.47927 16.3604C3.58481 20.9593 1.91047 26.4035 1.91047 32.2388Z" fill="white"/>
<circle cx="31.7612" cy="32.2388" r="30.9168" stroke="white" stroke-width="2.1322"/>
</g>
</svg>
